<?xml version="1.0" standalone="no"?>
<!DOCTYPE svg PUBLIC "-//W3C//DTD SVG 20010904//EN"
 "http://www.w3.org/TR/2001/REC-SVG-20010904/DTD/svg10.dtd">
<svg version="1.0" xmlns="http://www.w3.org/2000/svg"
 width="350.000000pt" height="350.000000pt" viewBox="0 0 350.000000 350.000000"
 preserveAspectRatio="xMidYMid meet">
<metadata>
Created by potrace 1.11, written by Peter Selinger 2001-2013
</metadata>
<g transform="translate(0.000000,350.000000) scale(0.100000,-0.100000)"
fill="#000000" stroke="none">
<path d="M624 3053 c1 -71 -3 -137 -8 -148 -10 -20 -13 -46 -18 -140 l-3 -50
-82 -3 c-80 -3 -81 -3 -92 -32 -9 -28 -13 -30 -64 -30 -46 0 -56 -3 -60 -19
-3 -14 -11 -18 -25 -14 -16 4 -22 -3 -32 -33 -19 -55 -14 -244 7 -277 3 -5 11
-6 18 -3 17 6 44 -35 47 -69 1 -14 8 -25 14 -25 6 0 17 -7 24 -15 11 -13 15
-13 21 -3 6 9 9 10 9 1 0 -7 12 -24 26 -38 25 -25 44 -26 44 -2 0 9 -2 9 -8 1
-5 -9 -10 -9 -17 0 -14 17 -17 36 -5 36 6 0 10 -7 10 -15 0 -8 5 -14 12 -12 7
1 13 -10 13 -25 1 -19 -4 -28 -15 -28 -9 0 -11 -3 -5 -8 9 -6 12 -26 5 -34 -1
-2 -3 -12 -4 -24 -1 -11 -8 -40 -14 -65 -14 -52 -91 -375 -97 -404 -2 -11 -4
-20 -5 -20 -2 0 -9 -35 -16 -82 -8 -54 10 -99 48 -119 16 -8 26 -19 23 -24 -4
-6 -1 -10 4 -10 6 0 11 6 11 13 1 6 8 0 16 -15 17 -32 21 -34 21 -13 0 8 -4
15 -9 15 -4 0 -8 5 -8 10 0 6 11 3 25 -6 13 -8 29 -13 34 -9 7 4 8 -1 4 -11
-4 -11 -3 -15 5 -10 6 3 13 3 16 -2 2 -4 -12 -8 -32 -9 -74 -2 -126 -15 -149
-36 -23 -22 -23 -23 -23 -299 0 -229 3 -279 15 -291 8 -8 11 -17 8 -21 -4 -3
1 -6 10 -6 9 0 17 -5 17 -11 0 -5 5 -7 11 -4 6 4 17 -1 25 -11 9 -11 13 -14
10 -9 -8 19 39 12 53 -8 13 -18 14 -18 35 0 11 9 15 11 9 3 -14 -16 -17 -31
-5 -28 4 0 15 -2 24 -6 10 -5 26 -2 39 8 21 14 24 14 36 -4 8 -11 16 -30 18
-41 6 -28 18 -41 13 -14 -2 14 3 20 20 21 12 1 22 -2 22 -6 0 -4 7 -7 16 -7
15 0 15 2 0 13 -10 7 -13 15 -7 18 5 4 12 2 15 -3 8 -12 56 -11 56 1 0 6 7 7
15 4 38 -15 48 -16 25 -1 -23 15 -24 15 -2 10 12 -4 22 -2 22 3 0 4 -13 8 -30
8 -16 0 -30 -4 -30 -8 0 -5 -5 -6 -12 -2 -7 4 -8 3 -4 -4 4 -7 -1 -9 -16 -6
-13 3 -28 6 -35 8 -7 1 -16 6 -20 10 -4 4 -1 6 7 4 9 -2 14 3 12 11 -3 12 0
12 12 1 11 -8 16 -9 16 -1 0 6 5 11 11 11 8 0 7 -5 -1 -15 -20 -24 -6 -27 17
-5 16 14 23 16 27 7 4 -7 4 -2 2 9 -2 16 1 21 13 19 9 -1 25 3 36 9 11 6 26
11 34 11 8 0 16 6 19 14 3 8 0 11 -5 8 -5 -3 -10 0 -10 8 0 21 14 19 21 -3 7
-21 4 -38 -7 -34 -5 1 -5 -3 -1 -9 5 -8 3 -9 -6 -4 -9 6 -11 4 -5 -5 5 -9 4
-11 -4 -6 -6 4 -8 12 -5 18 4 6 1 8 -7 6 -8 -3 -13 -10 -12 -16 1 -6 -9 -9
-23 -7 -15 1 -23 -2 -21 -9 5 -12 9 -12 47 -1 20 6 23 5 13 -6 -7 -7 -13 -17
-13 -22 0 -5 12 5 26 23 22 26 29 29 43 18 14 -11 14 -11 4 3 -10 12 -10 18
-1 27 9 9 9 12 0 12 -7 0 -12 5 -12 12 0 6 9 3 21 -8 12 -10 24 -18 27 -16 4
2 8 -2 10 -10 2 -9 0 -8 -7 2 -10 13 -11 13 -11 0 0 -13 -1 -13 -10 0 -5 8
-10 11 -10 5 0 -5 5 -17 10 -25 7 -11 10 -11 10 -2 0 7 4 11 9 7 5 -3 13 -1
16 5 5 8 11 7 21 -1 8 -6 14 -8 14 -3 0 5 5 1 11 -9 6 -9 15 -15 21 -11 6 4 5
10 -3 15 -10 6 -11 9 -1 9 6 0 21 -9 31 -19 18 -18 20 -18 24 -3 3 9 4 5 4
-10 -1 -15 -5 -24 -9 -22 -4 3 -5 -2 -1 -11 5 -13 7 -14 14 -3 7 10 9 10 10 1
3 -28 4 -32 12 -37 4 -3 5 -3 2 0 -2 4 4 19 15 34 24 34 25 41 5 34 -8 -4 -13
-9 -10 -13 2 -4 -2 -8 -10 -8 -18 0 -19 5 -2 20 14 15 52 16 64 3 5 -5 2 -6
-6 -1 -9 5 -12 3 -9 -6 6 -18 50 -18 56 0 3 8 0 11 -6 7 -6 -3 -9 1 -8 9 1 8
4 16 7 17 2 2 3 1 2 -1 -4 -7 19 -31 29 -31 5 0 6 5 3 10 -3 6 -1 10 5 10 7 0
9 -7 6 -16 -3 -9 -6 -17 -6 -20 0 -2 -7 -1 -15 2 -8 4 -17 -1 -21 -10 -3 -9
-10 -16 -16 -16 -5 0 -6 4 -3 10 3 5 2 10 -4 10 -10 0 -9 -55 1 -66 4 -3 5 2
4 12 -2 9 6 26 16 36 24 24 31 23 17 -3 -8 -16 -8 -24 1 -33 8 -8 10 -7 5 4
-3 9 2 24 11 35 15 20 15 20 11 -3 -3 -12 -1 -20 4 -16 5 3 9 12 9 20 0 9 5
12 12 8 7 -4 8 -3 4 5 -4 6 -12 8 -18 5 -7 -4 -8 -2 -4 4 5 9 13 9 27 1 15 -7
24 -7 34 1 9 7 15 8 20 0 3 -5 2 -10 -3 -10 -6 0 -13 -8 -16 -17 -6 -15 -4
-15 14 2 16 15 18 21 8 33 -11 13 -9 14 11 7 20 -6 23 -5 17 10 -5 13 -2 16
10 11 12 -4 14 -1 9 14 -4 11 -2 20 4 20 5 0 12 -8 14 -17 3 -10 5 -4 6 14 0
17 6 35 11 38 8 5 7 12 -2 23 -8 10 -8 13 -1 9 6 -4 13 -1 16 5 2 7 8 9 13 5
5 -4 3 -11 -3 -15 -22 -14 47 -73 89 -77 3 0 10 -3 14 -8 12 -12 26 -8 18 6
-5 9 -4 9 6 0 7 -6 20 -9 29 -6 12 3 12 1 -3 -11 -10 -8 -23 -13 -27 -10 -5 3
-9 0 -9 -5 0 -6 11 -10 25 -9 14 1 25 6 25 11 0 4 5 5 11 1 8 -4 7 -9 -2 -15
-7 -4 -16 -6 -20 -3 -4 2 -10 -3 -13 -12 -5 -14 -9 -14 -24 -3 -15 12 -15 11
1 -7 12 -13 20 -15 25 -8 4 6 18 10 32 9 18 -1 24 -7 22 -21 -2 -15 -1 -16 7
-5 9 14 4 41 -8 41 -4 0 -7 9 -7 19 0 11 4 17 8 15 4 -3 8 -11 8 -17 0 -7 9
-13 21 -14 16 -2 18 1 9 12 -8 9 -8 15 0 20 6 4 9 1 8 -6 -2 -6 3 -14 11 -17
10 -3 12 0 8 11 -3 9 -1 19 5 23 6 4 8 3 5 -3 -15 -24 24 -20 43 4 11 14 23
24 26 21 9 -10 -47 -59 -58 -52 -7 5 -8 2 -3 -6 5 -9 4 -11 -3 -6 -7 4 -12 2
-12 -4 0 -6 -4 -9 -8 -6 -5 3 -9 -1 -9 -9 0 -8 4 -12 8 -9 4 2 10 -2 12 -8 4
-10 6 -10 6 0 1 7 5 10 11 7 6 -3 7 1 4 9 -7 19 12 22 20 4 4 -9 5 -8 5 2 -2
30 1 41 11 35 5 -3 7 -12 3 -20 -3 -8 0 -15 6 -15 6 0 10 6 9 13 -2 6 3 11 10
9 6 -1 12 3 12 9 0 6 -7 9 -15 6 -8 -4 -17 -2 -20 3 -6 10 7 14 32 11 6 -1 14
3 18 9 3 6 0 7 -9 4 -9 -3 -16 -2 -16 4 0 14 24 22 40 12 11 -7 10 -14 -4 -37
l-17 -28 23 27 c18 20 29 25 51 21 15 -3 27 -9 27 -12 0 -4 7 -8 15 -9 8 -1
22 -3 30 -4 8 -1 12 -5 9 -10 -3 -4 0 -8 5 -8 6 0 11 5 11 10 0 6 8 2 19 -9
10 -10 25 -21 32 -24 12 -5 11 -7 -1 -16 -10 -7 -11 -11 -3 -11 18 0 36 37 20
43 -6 2 -4 3 5 2 16 -3 33 20 29 38 -1 5 3 6 9 2 8 -5 7 -11 -1 -21 -6 -8 -9
-18 -5 -21 4 -4 11 -1 16 7 6 10 10 11 10 3 0 -14 31 -6 42 11 5 7 8 7 8 -2 0
-7 -12 -18 -27 -24 -38 -15 -63 -17 -56 -4 3 6 2 7 -2 3 -12 -11 -15 -37 -4
-37 5 0 9 5 9 10 0 6 4 10 10 10 5 0 7 -8 4 -17 -5 -17 -5 -17 6 0 6 9 16 17
22 17 7 0 7 -4 0 -13 -8 -10 -6 -13 8 -13 14 0 16 4 10 15 -6 12 0 19 23 29
26 11 29 15 17 23 -13 9 -13 10 0 6 8 -2 14 -10 12 -16 -1 -6 5 -11 14 -11 9
0 13 5 9 13 -4 6 -1 5 7 -4 7 -8 25 -15 40 -15 19 0 24 3 18 11 -6 7 -7 15 -3
18 3 4 12 -1 20 -11 10 -14 12 -14 8 -1 -3 9 1 22 9 28 13 11 18 9 27 -15 7
-16 13 -32 13 -36 1 -3 5 -10 10 -15 5 -4 6 -3 2 4 -4 8 1 11 14 10 11 -1 23
-10 26 -20 6 -18 6 -18 19 0 7 9 11 26 10 35 -2 10 0 16 5 13 4 -3 10 -2 13 2
2 5 2 2 1 -5 -2 -7 3 -15 11 -18 8 -4 12 -11 8 -18 -4 -6 1 -4 11 4 17 13 17
14 0 20 -16 6 -16 7 -1 13 9 3 17 3 17 -1 0 -4 9 -8 21 -9 18 -2 19 0 7 15
-12 16 -11 16 6 2 18 -14 19 -13 14 1 -5 13 -2 16 15 11 12 -3 26 -11 30 -19
13 -22 29 -15 17 8 -7 11 -9 23 -7 26 3 2 8 -5 12 -17 5 -14 12 -19 23 -15 14
5 14 4 -1 -13 -22 -24 -22 -39 -1 -17 13 12 19 13 31 4 7 -7 12 -18 9 -26 -8
-20 0 -15 17 11 15 22 15 24 -1 21 -16 -2 -32 11 -32 28 0 4 5 7 11 7 5 0 7
-5 4 -10 -9 -14 8 -12 24 3 10 8 12 8 7 0 -3 -6 3 -18 14 -26 13 -9 18 -21 15
-33 -4 -12 -1 -10 8 5 11 18 12 28 3 37 -6 6 -14 10 -18 8 -8 -5 -4 24 5 31 4
3 5 2 2 -2 -8 -11 26 -42 40 -37 7 3 15 -1 18 -9 3 -7 -1 -14 -9 -14 -7 0 -10
5 -7 11 3 6 2 8 -2 3 -15 -13 -15 -44 -1 -44 8 0 12 6 9 13 -3 8 4 11 23 9 16
-1 37 3 49 10 11 7 27 12 36 10 17 -3 20 18 4 32 -4 4 -5 3 -2 -3 4 -6 -6 -10
-24 -10 -16 0 -29 4 -29 8 0 5 6 8 13 7 24 -3 38 1 33 10 -4 5 0 8 6 7 24 -3
37 -17 31 -31 -3 -8 0 -15 6 -15 6 0 11 9 11 20 0 11 4 20 9 20 6 0 6 -12 0
-32 -12 -42 -12 -41 5 -26 7 7 12 18 9 24 -2 6 3 14 13 18 13 5 14 3 6 -6 -7
-9 -6 -18 4 -32 7 -10 10 -24 7 -30 -4 -6 5 -3 19 6 26 17 28 17 37 0 7 -10
11 -12 11 -4 0 7 4 11 9 8 5 -3 16 6 25 19 9 14 21 23 26 20 4 -3 10 -2 13 2
2 5 3 3 1 -3 -1 -7 4 -21 12 -33 8 -12 12 -27 8 -34 -5 -7 -1 -6 10 3 11 8 14
16 7 18 -6 2 -8 9 -5 14 4 6 3 8 -2 5 -6 -3 -11 3 -11 15 -2 19 -1 19 18 -3
10 -12 19 -27 19 -33 0 -6 5 -3 11 7 9 15 13 16 27 5 9 -7 14 -8 10 -4 -4 5
-2 16 5 24 6 9 7 13 2 10 -7 -4 -11 5 -10 22 0 21 4 27 17 25 9 -2 24 7 32 20
14 21 14 24 -7 39 -22 16 -22 16 3 4 36 -18 79 -18 73 0 -3 7 -9 10 -12 5 -3
-5 -11 -9 -18 -8 -14 0 -30 15 -16 15 6 0 18 10 26 23 12 19 13 24 2 24 -8 0
-12 -4 -9 -9 3 -4 0 -8 -6 -8 -6 0 -9 -4 -6 -9 3 -5 -3 -11 -15 -14 -14 -4
-18 -2 -12 6 18 24 32 67 23 67 -6 0 -10 -7 -10 -17 0 -9 -3 -13 -7 -9 -8 8
-9 10 -12 44 -2 15 -3 15 -10 -2 -5 -14 -10 -16 -15 -8 -4 7 -5 12 -2 12 3 0
-1 12 -9 27 -8 15 -11 31 -8 37 3 6 3 8 -1 4 -10 -8 -47 23 -40 34 3 4 -6 3
-20 -4 -32 -14 -41 -6 -26 22 7 13 17 19 26 16 9 -3 12 -1 9 4 -6 10 7 14 33
11 6 -1 12 3 12 8 0 5 -9 8 -20 6 -11 -2 -18 0 -15 6 4 5 2 9 -2 9 -16 0 -34
38 -21 46 6 4 8 3 5 -3 -4 -6 2 -18 12 -27 18 -17 20 -16 29 1 6 10 14 14 18
10 5 -5 2 -12 -5 -16 -8 -6 -9 -11 -3 -15 6 -3 13 -2 17 4 4 6 11 7 17 4 7 -5
9 2 6 20 -3 15 -2 24 2 19 5 -4 10 -17 12 -28 2 -11 10 -20 18 -20 9 0 15 -9
14 -22 0 -12 4 -19 9 -16 5 3 6 14 4 24 -4 14 -1 19 11 17 10 -2 21 -7 25 -13
5 -6 7 -4 5 5 -2 8 2 15 7 15 6 0 9 -4 7 -8 -1 -5 2 -6 7 -3 10 7 9 25 -2 44
-10 15 5 16 20 1 8 -8 13 -7 18 2 5 7 4 10 -2 6 -6 -4 -16 0 -23 8 -9 11 -9
15 -1 16 26 3 30 4 38 12 4 5 1 7 -7 5 -8 -2 -14 3 -13 10 2 6 -2 12 -8 12 -6
0 -8 -7 -5 -16 3 -8 2 -12 -3 -9 -5 3 -12 -4 -16 -15 -3 -11 -11 -20 -17 -20
-5 0 -7 -7 -4 -16 4 -10 2 -13 -6 -8 -6 4 -8 3 -5 -2 3 -6 -6 -10 -21 -11 -15
0 -19 1 -9 4 9 2 14 9 11 15 -5 7 -2 8 6 3 10 -6 12 -4 7 9 -4 9 -3 15 2 12 5
-3 14 1 21 9 10 12 10 18 -1 32 -11 13 -11 17 -1 20 6 3 10 9 7 13 -3 5 -13 7
-23 4 -14 -5 -14 -4 -2 4 20 15 45 -5 30 -23 -8 -9 -8 -15 0 -20 5 -3 10 -1
10 6 0 7 7 21 17 31 9 11 11 18 5 18 -7 0 -12 -4 -12 -10 0 -5 -10 0 -21 11
-16 16 -23 18 -29 9 -5 -8 -8 -1 -8 16 1 45 -6 93 -12 92 -10 -2 -60 25 -60
33 0 5 -6 6 -14 3 -8 -3 -17 -1 -20 5 -4 6 -13 8 -21 4 -8 -3 -15 0 -15 6 0 6
6 11 14 11 7 0 20 8 27 17 12 14 12 16 0 8 -11 -6 -13 -4 -8 8 3 10 3 17 -2
17 -16 0 -21 -13 -10 -27 9 -10 7 -13 -7 -15 -20 -1 -36 -4 -44 -8 -3 -1 -21
-3 -40 -5 -19 -1 -29 0 -22 2 6 3 10 8 8 12 -3 4 4 7 14 7 10 0 16 -4 14 -8
-3 -4 0 -8 5 -8 6 0 11 5 11 10 0 6 6 10 13 9 25 -3 38 1 32 11 -4 6 -9 8 -13
6 -4 -2 -8 8 -9 22 -1 27 -1 27 11 4 7 -12 15 -20 19 -16 4 4 1 14 -6 22 -11
13 -9 14 11 1 21 -12 25 -12 36 3 7 10 17 14 22 10 4 -4 2 1 -5 11 -13 17 -4
24 15 10 5 -5 -6 7 -24 25 -18 17 -28 32 -22 32 6 0 9 4 5 9 -3 5 -1 12 5 16
6 4 8 10 5 15 -3 5 -1 11 5 15 6 4 9 -4 8 -19 -1 -13 -6 -22 -12 -19 -5 3 -6
1 -2 -5 5 -9 12 -8 27 1 10 6 15 13 9 15 -5 2 -10 8 -10 13 0 6 6 7 13 4 6 -4
2 2 -11 12 -13 10 -19 22 -15 27 4 4 8 15 8 24 0 10 6 16 15 14 8 -2 11 0 7 4
-11 11 -38 14 -31 3 3 -5 1 -9 -5 -9 -19 0 -17 25 3 37 14 8 16 12 6 13 -13 0
-13 2 0 11 12 9 12 10 -3 5 -12 -4 -17 -2 -14 6 2 7 13 13 24 12 11 -1 20 5
20 12 0 10 -4 11 -13 3 -8 -7 -14 -7 -19 1 -3 5 -13 10 -21 10 -8 0 -12 -5 -9
-10 4 -6 11 -7 17 -4 7 4 8 2 4 -5 -4 -6 -11 -9 -16 -6 -4 3 -14 -3 -21 -12
-12 -15 -12 -16 3 -10 9 3 22 -1 28 -9 9 -10 9 -14 1 -14 -6 0 -11 5 -11 10 0
7 -8 7 -22 -1 -13 -6 -20 -8 -16 -4 4 5 2 15 -4 24 -7 9 -8 13 -4 9 12 -10 38
11 30 24 -3 5 4 12 16 15 16 4 18 8 8 14 -10 7 -10 9 0 9 6 0 12 5 12 11 0 5
-4 8 -8 5 -5 -3 -9 1 -9 9 0 11 4 12 14 4 7 -6 13 -8 13 -4 0 4 6 2 13 -4 26
-21 15 22 -12 47 -14 13 -21 21 -14 18 6 -4 14 -2 18 4 3 5 1 10 -5 10 -6 0
-9 4 -6 9 4 5 3 11 -1 14 -5 2 -3 2 4 1 7 -2 15 2 19 7 3 6 15 9 25 6 10 -3
22 0 26 5 3 7 1 8 -5 4 -7 -4 -12 -2 -12 4 0 6 -4 9 -8 6 -4 -2 -14 0 -22 6
-12 8 -12 9 3 4 14 -5 16 -1 12 22 -5 25 -5 25 4 5 14 -31 25 -29 17 2 -4 16
-2 25 5 25 7 0 4 9 -7 22 -10 12 -13 18 -5 13 11 -6 13 -4 8 8 -4 10 -2 17 4
17 6 0 9 -9 6 -20 -3 -11 -1 -23 4 -26 5 -3 6 -11 3 -17 -4 -7 -4 -9 1 -5 4 4
15 2 23 -5 10 -8 13 -8 9 -1 -4 7 0 15 8 18 14 5 14 9 2 33 -8 16 -13 36 -12
46 2 9 -1 17 -6 17 -5 0 -7 -11 -5 -25 3 -13 0 -27 -5 -31 -5 -3 -9 -2 -8 3 1
4 0 10 -1 13 -5 13 -6 49 -1 48 20 -2 31 3 26 12 -4 6 -12 7 -18 3 -7 -3 -3 3
7 15 11 12 17 24 14 27 -3 3 -11 -1 -18 -10 -7 -8 -20 -15 -29 -15 -10 0 -7 5
9 13 14 8 24 18 23 24 -3 14 25 25 32 13 4 -6 3 -10 -2 -10 -4 0 -8 -13 -8
-29 -1 -21 3 -27 10 -21 7 6 17 5 25 -3 12 -10 12 -9 2 4 -6 9 -8 20 -4 24 4
5 1 5 -6 1 -10 -6 -13 -3 -11 10 5 28 -18 63 -40 61 -11 0 -18 -5 -15 -9 3 -4
11 -5 19 -1 8 3 15 0 15 -6 0 -6 -7 -11 -15 -11 -8 0 -18 0 -22 0 -5 0 -9 9
-9 20 -1 11 -3 22 -4 25 -1 3 -3 8 -4 13 -2 4 -8 18 -15 32 -23 48 -48 51
-346 48 -246 -3 -278 -5 -289 -20 -12 -16 -14 -16 -42 3 -24 16 -47 19 -137
19 -62 0 -118 -5 -130 -11 -25 -13 -58 -45 -57 -56 0 -23 -13 -73 -20 -73 -5
0 -7 -11 -5 -25 1 -14 -2 -28 -8 -32 -6 -4 -7 -1 -2 7 6 10 4 12 -8 7 -11 -4
-14 -2 -10 9 3 7 10 14 15 14 6 0 5 7 -2 15 -7 9 -20 13 -28 10 -8 -3 -16 3
-19 15 -3 11 -10 20 -15 20 -5 0 -6 5 -3 10 3 6 -1 13 -10 16 -13 5 -13 9 -3
22 8 10 9 13 1 9 -6 -4 -17 -1 -25 6 -29 29 -60 37 -146 37 -89 0 -160 -20
-147 -41 4 -5 2 -9 -3 -9 -5 0 -15 -19 -23 -42 -14 -44 -15 -48 -17 -86 -1
-13 -6 -21 -11 -18 -5 4 -7 -3 -4 -14 3 -11 1 -20 -5 -20 -5 0 -10 -6 -9 -12
1 -42 -3 -48 -28 -38 -19 7 -23 6 -18 -5 3 -8 8 -13 12 -11 4 3 13 1 20 -3 10
-6 10 -13 2 -28 -5 -11 -7 -24 -3 -29 4 -5 0 -3 -10 4 -11 9 -18 10 -23 2 -3
-5 -2 -10 3 -10 6 0 13 -7 16 -16 5 -13 4 -14 -7 -6 -8 7 -16 9 -20 6 -8 -8
-3 18 6 34 5 7 13 9 19 6 6 -4 8 -1 6 7 -3 8 -11 13 -17 11 -7 -1 -10 2 -6 8
3 5 1 10 -5 10 -6 0 -8 5 -4 12 5 8 1 9 -12 5 -18 -7 -18 -6 -1 7 10 8 18 16
17 18 -5 14 14 36 28 31 13 -4 12 -2 -3 10 -15 13 -16 17 -5 17 12 0 11 3 -3
11 -9 6 -15 14 -12 19 3 4 -2 11 -11 14 -8 3 -12 10 -9 16 3 6 0 17 -9 25 -18
19 -32 20 -17 1 9 -10 8 -15 -3 -19 -10 -4 -13 -1 -9 9 3 7 0 14 -7 14 -10 0
-10 3 -1 14 9 11 9 16 0 22 -8 4 -9 3 -5 -4 4 -7 4 -12 1 -12 -3 0 -11 13 -16
29 -16 45 -59 60 -176 64 -63 1 -104 -1 -106 -8 -2 -6 -12 -5 -28 3 l-24 12
25 -6 c23 -6 24 -6 10 11 -9 11 -10 16 -2 11 16 -10 15 2 -2 19 -7 8 -17 11
-20 7 -4 -3 -4 2 0 12 4 10 10 14 13 9 3 -5 13 -8 21 -8 8 1 22 -4 30 -9 13
-9 13 -8 3 5 -7 9 -9 20 -5 24 4 5 2 5 -4 2 -7 -4 -15 0 -18 9 -3 8 -2 12 4 9
6 -3 10 0 10 7 0 10 3 9 11 -2 9 -13 10 -13 6 0 -2 8 -12 13 -23 12 -10 -2
-23 -5 -28 -5 -5 -1 -11 5 -13 13 -4 12 -3 12 5 1 6 -8 12 -10 16 -3 4 6 -1
15 -11 20 -9 5 -18 17 -19 26 -1 9 2 14 7 10 5 -3 7 -10 4 -15 -9 -13 9 -11
23 3 9 9 11 6 7 -10 -5 -26 1 -28 20 -8 12 12 12 15 -1 20 -11 4 -13 13 -9 27
6 17 4 21 -9 16 -8 -3 -18 -2 -21 4 -4 5 -11 6 -17 3 -7 -4 -5 -10 6 -16 9 -5
21 -6 26 -3 5 3 7 0 4 -9 -5 -12 -9 -12 -34 2 -25 14 -26 18 -12 28 9 7 20 10
25 7 4 -2 7 -1 6 4 -1 4 0 10 1 13 1 3 3 13 5 22 3 14 0 16 -15 8 -9 -5 -21
-6 -25 -2 -5 4 -5 2 -1 -5 4 -7 14 -10 24 -7 14 5 14 3 -2 -10 -24 -19 -35
-13 -31 19 1 14 -2 25 -7 25 -5 0 -6 4 -3 10 3 5 -3 17 -15 27 -11 10 -20 23
-20 30 0 10 -39 13 -170 13 -107 0 -170 4 -170 10 0 6 -5 10 -11 10 -6 0 -20
12 -31 26 -11 14 -26 23 -33 20 -7 -2 -18 1 -25 7 -9 8 -11 8 -7 1 4 -7 -3
-11 -18 -11 -15 0 -22 4 -18 11 3 6 0 6 -8 -1 -16 -16 -29 -17 -29 -2 0 5 5 7
12 3 7 -4 8 -3 4 5 -4 6 -11 9 -16 6 -4 -3 -11 2 -14 11 -3 8 -10 12 -16 9 -5
-3 -10 -1 -10 5 0 6 -5 8 -11 4 -8 -4 -7 -9 2 -15 7 -4 16 -6 20 -3 8 5 22
-27 14 -34 -3 -3 -5 0 -5 8 0 9 -4 10 -13 2 -22 -18 -34 1 -32 48 1 25 -3 50
-8 57 -14 19 -19 64 -24 216 -3 102 -7 137 -17 137 -10 0 -12 -30 -12 -127z
m747 -700 c13 -17 13 -17 -6 -3 -11 8 -22 16 -24 17 -2 2 0 3 6 3 6 0 17 -8
24 -17z m-31 -51 c0 -4 -10 -13 -22 -21 -23 -14 -23 -14 -4 8 20 22 26 25 26
13z m-22 -77 c-3 -3 -9 2 -12 12 -6 14 -5 15 5 6 7 -7 10 -15 7 -18z m-252
-27 c4 -7 3 -8 -4 -4 -7 4 -12 2 -12 -5 0 -7 -3 -10 -6 -6 -6 5 3 27 11 27 2
0 7 -5 11 -12z m-662 -14 c3 -8 2 -12 -4 -9 -6 3 -10 10 -10 16 0 14 7 11 14
-7z m684 -6 c-2 -7 4 -11 12 -10 8 2 12 0 7 -4 -4 -4 5 -16 20 -26 30 -19 48
-24 39 -10 -3 5 4 8 15 7 11 -1 25 -8 30 -16 5 -8 9 -10 9 -6 0 5 5 5 11 2 7
-5 6 -12 -3 -23 -8 -10 -20 -29 -27 -44 -8 -15 -18 -25 -22 -22 -5 3 -6 -2 -3
-10 3 -9 1 -16 -5 -16 -6 0 -10 -3 -9 -7 1 -5 -11 -28 -26 -53 -16 -25 -44
-69 -62 -98 -19 -29 -34 -56 -34 -61 0 -5 -4 -11 -8 -13 -4 -1 -20 -24 -35
-51 -16 -26 -32 -45 -36 -42 -5 2 -29 6 -54 6 -25 1 -45 6 -44 11 1 5 -9 17
-23 25 l-25 15 24 -19 c16 -14 20 -22 12 -27 -14 -9 -31 1 -31 20 0 8 -4 13
-9 12 -5 -2 -9 2 -10 7 -1 6 3 10 8 10 5 0 13 3 17 8 4 4 2 7 -5 7 -6 0 -11 8
-9 18 2 10 -2 16 -11 14 -12 -3 -12 0 -1 12 14 17 25 22 15 7 -3 -5 -1 -12 4
-15 5 -3 11 1 15 9 3 8 -3 19 -12 25 -15 8 -14 9 5 7 12 -2 26 -7 30 -12 5 -4
3 -5 -3 -2 -6 3 -11 1 -12 -6 0 -7 -3 -22 -6 -34 -3 -14 0 -23 7 -23 7 0 6 -4
-3 -11 -13 -9 -13 -10 0 -7 8 3 15 17 16 34 0 16 2 32 4 37 1 4 3 13 4 20 1 6
8 11 16 9 11 -3 11 0 0 12 -7 9 -9 16 -6 16 4 0 1 10 -5 23 -11 20 -11 21 4 9
13 -11 15 -10 10 7 -3 12 -10 18 -16 14 -6 -3 -7 -1 -3 5 4 7 1 12 -6 12 -9 0
-9 3 2 10 8 5 20 10 25 10 6 0 3 -5 -5 -10 -13 -8 -12 -10 3 -10 10 0 16 -4
12 -9 -3 -5 -1 -12 4 -16 6 -3 8 4 6 17 -3 12 3 30 12 40 9 10 13 21 10 24 -3
4 -2 15 4 26 9 16 13 17 27 6 15 -12 16 -11 3 5 -8 9 -11 21 -7 24 4 4 12 1
17 -7 9 -13 10 -13 6 0 -2 8 -11 14 -20 14 -9 -1 -14 2 -11 7 3 5 0 9 -7 9 -7
0 -9 3 -6 7 4 3 1 13 -6 22 -11 14 -10 14 6 2 28 -22 30 -7 3 22 -14 15 -22
27 -17 27 8 0 41 -35 56 -59 5 -9 4 -12 -3 -7 -6 3 -14 1 -18 -5 -4 -7 -3 -9
4 -5 6 3 18 -2 28 -11 16 -16 16 -16 9 7 -7 22 -6 23 8 12 13 -11 15 -10 13
13 -4 31 -12 40 -21 26 -3 -6 -1 -11 4 -11 6 0 11 -4 11 -8 0 -5 -6 -9 -13 -9
-16 0 -16 49 0 54 10 4 45 -56 38 -67 -2 -3 5 -6 15 -7 11 -1 22 2 25 8 3 5
-1 6 -9 3 -10 -4 -14 0 -13 14 1 14 8 19 32 18 16 -1 31 2 33 7 1 4 -1 7 -4 6
-4 0 -11 5 -16 13 -7 10 -8 9 -4 -4 3 -12 0 -18 -10 -18 -8 0 -12 4 -9 10 3 5
0 8 -7 5 -7 -3 -19 4 -26 16 -8 12 -9 19 -4 15 5 -3 18 1 28 9 24 18 25 18 22
3z m-102 -10 c5 4 5 3 1 -2 -12 -15 -34 -15 -34 0 0 9 4 11 12 4 7 -5 16 -6
21 -2z m260 -22 c0 -14 -6 -22 -14 -19 -9 4 -9 9 -2 18 5 6 7 15 3 18 -3 4 -2
7 4 7 6 0 10 -11 9 -24z m471 -12 c-4 -4 2 -19 12 -33 10 -14 19 -30 19 -36 0
-14 -18 -35 -32 -35 -7 0 -7 3 1 8 7 4 11 18 10 30 -1 20 -9 26 -29 23 -3 0
-5 5 -4 12 2 16 16 37 23 37 4 0 3 -3 0 -6z m533 -14 c0 -5 -4 -10 -10 -10 -5
0 -10 5 -10 10 0 6 5 10 10 10 6 0 10 -4 10 -10z m1090 -16 c0 -8 -19 -13 -24
-6 -3 5 1 9 9 9 8 0 15 -2 15 -3z m-1626 -40 c3 -8 2 -12 -4 -9 -6 3 -10 10
-10 16 0 14 7 11 14 -7z m-787 -45 c-8 -13 -13 -15 -16 -7 -2 7 -9 17 -15 21
-6 5 0 5 13 2 17 -5 22 -4 16 5 -5 9 -4 11 3 6 9 -5 8 -12 -1 -27z m-8 -36
c11 -6 -22 -31 -35 -26 -23 9 -16 22 9 16 22 -6 21 -6 -3 16 l-25 22 25 -13
c14 -7 27 -14 29 -15z m-71 -14 c9 -12 9 -16 -1 -16 -7 0 -14 9 -14 20 -1 11
-1 18 0 16 2 -2 8 -11 15 -20z m2519 -31 c-6 -4 -15 -2 -19 5 -4 6 -2 15 5 19
6 4 15 2 19 -5 4 -6 2 -15 -5 -19z m-1640 7 c0 -8 -4 -12 -9 -9 -5 3 -6 10 -3
15 9 13 12 11 12 -6z m-898 -22 c-3 -20 2 -26 11 -13 8 13 10 12 10 -2 0 -10
-4 -18 -9 -18 -13 0 -32 26 -24 33 8 9 13 9 12 0z m2446 -23 c3 -5 1 -10 -4
-10 -6 0 -11 5 -11 10 0 6 2 10 4 10 3 0 8 -4 11 -10z m-2468 -25 c0 -8 -4
-12 -9 -9 -5 3 -6 10 -3 15 9 13 12 11 12 -6z m39 -4 c8 6 14 10 15 8 6 -31 6
-40 -1 -44 -11 -7 -40 22 -39 38 0 8 2 8 6 -1 4 -10 8 -10 19 -1z m908 -7 c3
-8 2 -12 -4 -9 -6 3 -10 10 -10 16 0 14 7 11 14 -7z m1510 1 c3 -8 1 -15 -4
-15 -6 0 -10 7 -10 15 0 8 2 15 4 15 2 0 6 -7 10 -15z m16 -119 c0 -10 -30 0
-34 11 -4 11 -1 11 14 3 11 -6 20 -12 20 -14z m-2497 -31 c4 -8 3 -16 -1 -19
-4 -3 -9 4 -9 15 -2 23 3 25 10 4z m2432 5 c3 -6 -1 -7 -9 -4 -18 7 -21 14 -7
14 6 0 13 -4 16 -10z m-2405 -30 c0 -5 -5 -10 -11 -10 -5 0 -7 5 -4 10 3 6 8
10 11 10 2 0 4 -4 4 -10z m2416 -89 c-3 -5 3 -20 14 -34 11 -14 16 -28 11 -31
-5 -4 -11 2 -13 11 -2 12 -6 14 -11 6 -4 -6 1 -19 10 -29 17 -17 17 -18 0 -11
-10 4 -21 7 -23 7 -3 0 -2 5 1 10 3 6 -1 13 -10 16 -14 6 -14 8 2 21 13 10 15
16 5 19 -13 6 -7 24 9 24 6 0 8 -4 5 -9z m-1102 -109 c2 -4 -4 -8 -14 -8 -10
0 -16 4 -14 8 3 4 9 8 14 8 5 0 11 -4 14 -8z m1101 -12 c-3 -5 -12 -10 -18
-10 -7 0 -6 4 3 10 19 12 23 12 15 0z m-1890 -20 c3 -6 -1 -7 -9 -4 -18 7 -21
14 -7 14 6 0 13 -4 16 -10z m44 -3 c6 -8 8 -17 4 -20 -3 -4 -1 -7 6 -7 7 0 9
-4 6 -10 -3 -5 -2 -10 3 -10 5 0 14 -11 20 -25 7 -14 23 -30 37 -35 17 -7 23
-15 19 -27 -5 -16 -5 -17 5 -1 11 16 53 19 67 5 3 -3 11 -4 17 -3 7 2 9 1 5
-1 -5 -3 -8 -12 -9 -21 0 -12 -3 -10 -9 6 -9 22 -11 22 -40 7 -34 -17 -37 -22
-15 -22 8 0 15 4 15 9 0 4 7 8 15 8 8 0 15 -5 15 -11 0 -5 -6 -7 -12 -3 -7 4
-10 4 -6 0 3 -4 8 -6 10 -4 6 6 36 -27 31 -34 -2 -5 0 -8 6 -8 5 0 9 9 8 19 0
11 -5 17 -9 15 -4 -3 -5 2 -1 12 5 14 8 13 19 -7 7 -13 10 -28 7 -33 -4 -5 -1
-6 6 -2 6 4 9 11 6 16 -7 12 5 40 18 40 7 0 7 -4 -1 -12 -7 -7 -12 -16 -12
-22 0 -6 5 -5 12 2 25 25 25 11 0 -16 -15 -15 -30 -26 -34 -24 -7 3 -12 -20
-9 -40 0 -4 -6 -5 -14 -2 -8 4 -15 12 -15 20 0 8 -6 14 -12 14 -9 0 -8 4 2 10
13 8 13 10 -2 10 -9 0 -20 4 -23 10 -4 6 1 7 12 3 10 -3 15 -3 11 1 -3 4 -19
10 -35 12 -39 6 -194 6 -200 0 -3 -3 -14 5 -25 17 -11 12 -16 16 -12 8 5 -9 3
-12 -4 -7 -8 5 -10 1 -5 -9 5 -13 7 -14 14 -3 5 7 9 9 9 3 0 -5 -5 -17 -10
-25 -9 -13 -11 -13 -20 0 -5 8 -10 11 -10 6 0 -5 -6 -3 -13 3 -8 6 -18 7 -23
3 -4 -4 -2 1 5 11 8 10 9 17 3 17 -6 0 -14 -4 -17 -10 -3 -5 -12 -10 -18 -9
-9 0 -8 2 1 6 6 2 10 8 8 12 -7 11 27 10 41 -1 7 -6 15 -3 21 8 8 14 13 14 32
4 12 -7 20 -8 16 -2 -7 11 49 63 59 54 3 -3 3 1 -1 11 -6 16 10 23 39 18 5 -1
6 3 3 8 -8 13 -46 10 -46 -4 0 -5 -5 -3 -11 5 -8 12 -9 10 -4 -7 3 -12 2 -24
-4 -27 -13 -8 -21 18 -11 35 5 8 4 19 -2 26 -8 10 -7 12 6 7 9 -3 16 -10 16
-16 0 -5 4 -7 10 -3 5 3 6 13 3 23 -4 13 -2 13 10 -3 14 -18 16 -18 13 -2 -1
10 -9 23 -17 28 -8 5 -9 9 -3 9 6 0 17 -6 23 -13z m688 -2 c0 -8 -4 -12 -9 -9
-5 3 -6 10 -3 15 9 13 12 11 12 -6z m87 -48 c-4 -11 -1 -17 8 -15 7 2 12 -1
11 -7 0 -5 5 -16 13 -23 8 -7 14 -10 14 -6 0 3 6 2 13 -4 7 -6 25 -13 41 -16
36 -6 38 -9 42 -47 4 -29 2 -30 -14 -18 -16 13 -16 12 -3 -4 14 -17 16 -18 27
-2 7 9 15 16 18 16 25 -3 30 -1 18 11 -7 7 -12 16 -12 22 0 5 6 2 13 -8 11
-15 17 -16 35 -7 14 7 23 8 27 1 3 -5 11 -10 17 -10 6 0 5 7 -3 18 -13 15 -12
16 4 3 14 -11 20 -11 35 0 15 13 16 12 4 -2 -11 -15 -9 -17 18 -15 16 0 30 5
30 11 0 5 7 2 14 -8 10 -13 15 -15 18 -5 3 7 -2 19 -11 26 -14 11 -12 11 7 2
12 -6 20 -15 17 -20 -3 -5 -1 -11 5 -15 5 -3 10 3 10 14 0 12 2 21 4 21 2 0
13 3 23 6 17 5 17 5 1 -6 -10 -6 -18 -16 -18 -21 0 -6 6 -7 13 -2 18 11 38 13
31 2 -3 -5 2 -9 10 -9 9 0 16 -4 16 -8 0 -12 -32 -11 -47 1 -7 5 -13 5 -13 0
0 -7 -65 -11 -80 -4 -23 11 -41 8 -36 -5 4 -10 2 -13 -6 -8 -20 13 -59 14 -52
2 4 -6 2 -8 -4 -5 -5 4 -22 -6 -35 -23 -14 -16 -32 -30 -39 -31 -10 0 -10 -2
-1 -6 9 -3 10 -10 3 -24 -6 -10 -7 -19 -3 -19 4 0 0 -5 -9 -11 -10 -5 -18 -15
-18 -22 0 -7 4 -6 10 3 6 9 10 10 10 3 0 -6 -5 -15 -11 -18 -6 -4 -8 -14 -5
-22 3 -8 1 -11 -4 -8 -7 4 -9 -3 -6 -19 3 -14 0 -26 -5 -26 -6 0 -7 -4 -4 -10
3 -6 -1 -7 -9 -4 -9 3 -16 10 -16 16 0 5 4 7 9 4 14 -9 20 16 9 37 -5 10 -14
15 -21 11 -8 -5 -8 -2 1 7 11 12 14 12 23 -1 9 -12 10 -12 5 3 -4 13 -2 16 7
11 9 -6 9 -4 -1 8 -9 11 -10 18 -2 23 5 3 10 12 10 18 0 7 -7 3 -15 -7 -8 -10
-12 -23 -9 -27 3 -5 0 -9 -5 -9 -6 0 -11 6 -11 14 0 8 -3 16 -7 19 -5 2 -2 2
5 0 7 -1 10 2 7 7 -3 6 -1 10 4 10 6 0 11 5 11 11 0 8 -5 7 -15 -1 -19 -16
-24 -12 -27 28 -1 17 -4 29 -7 27 -7 -8 -31 16 -26 25 3 5 -3 7 -12 5 -10 -1
-22 0 -28 4 -5 3 -13 6 -17 7 -5 1 -9 2 -10 4 -4 2 -39 10 -65 14 -26 3 -71
53 -48 53 8 0 12 -4 9 -9 -3 -4 2 -11 10 -14 9 -3 13 -11 9 -17 -3 -6 -1 -7 6
-3 9 6 9 11 0 22 -6 8 -9 17 -5 21 3 3 6 1 6 -5 0 -7 5 -12 10 -12 15 0 7 24
-10 32 -12 5 -11 7 3 7 10 1 15 5 12 11 -4 6 1 7 12 3 16 -6 16 -5 4 10 -7 9
-18 14 -23 11 -5 -3 -4 3 4 15 11 19 13 19 22 3 15 -26 16 -43 2 -48 -14 -5
-16 -58 -3 -71 5 -4 8 -3 7 2 -5 23 1 36 13 29 10 -6 10 -4 0 7 -19 20 -16 33
5 18 15 -13 16 -12 3 4 -11 14 -11 17 0 18 11 0 11 2 1 6 -10 4 -10 9 3 23 14
15 14 18 1 23 -11 4 -13 1 -10 -11 5 -15 4 -15 -6 0 -8 14 -8 21 2 32 11 12
15 11 25 -8 7 -11 10 -29 7 -39z m1080 10 c7 -7 12 -21 10 -31 -3 -21 -14 -35
-14 -17 0 7 -4 10 -9 6 -5 -3 -13 0 -17 6 -4 7 -3 9 4 5 16 -10 25 13 12 29
-15 18 -3 20 14 2z m-1931 -18 c-8 -8 -13 -7 -18 2 -5 8 -4 10 3 5 7 -4 12 -2
12 5 0 7 3 9 7 6 4 -4 2 -12 -4 -18z m-11 -31 c4 -7 8 -9 8 -5 0 5 5 5 11 2
15 -10 -20 -45 -38 -38 -13 5 -13 7 1 15 13 8 15 13 5 24 -6 7 -15 12 -19 9
-5 -3 -11 -1 -15 4 -3 6 4 8 16 6 13 -3 26 -10 31 -17z m755 7 c0 -8 -4 -12
-9 -9 -5 3 -6 10 -3 15 9 13 12 11 12 -6z m-1476 -52 c13 -16 12 -17 -3 -4
-10 7 -18 15 -18 17 0 8 8 3 21 -13z m672 2 c-3 -9 -8 -14 -10 -11 -3 3 -2 9
2 15 9 16 15 13 8 -4z m1262 -6 c-4 -5 -12 -9 -18 -8 -9 0 -8 2 1 6 6 2 9 10
6 15 -4 7 -2 8 5 4 6 -4 9 -12 6 -17z m499 -15 c-3 -18 -1 -23 7 -18 8 4 9 3
5 -4 -14 -23 -25 -12 -23 22 1 19 5 32 9 30 4 -2 5 -16 2 -30z m-2310 18 c2
-4 -4 -8 -14 -8 -10 0 -16 4 -14 8 3 4 9 8 14 8 5 0 11 -4 14 -8z m77 -5 c-6
-8 -8 -17 -4 -20 3 -4 1 -7 -6 -7 -7 0 -9 -5 -5 -12 5 -7 3 -8 -5 -3 -10 6
-11 3 -1 -15 9 -17 9 -25 0 -34 -9 -8 -11 -8 -8 3 2 7 -6 15 -17 17 -11 1 -21
8 -23 14 -2 5 -9 7 -14 4 -7 -5 -8 -2 -3 6 5 9 2 10 -13 6 -11 -4 -23 -2 -27
3 -4 7 1 8 11 4 12 -4 15 -3 10 5 -5 8 -2 10 9 6 8 -4 22 -1 29 5 10 8 16 9
21 1 9 -15 25 -12 25 4 0 8 6 17 13 19 19 8 20 8 8 -6z m43 5 c3 -5 -1 -9 -9
-9 -8 0 -12 4 -9 9 3 4 7 8 9 8 2 0 6 -4 9 -8z m106 -7 c7 -8 16 -13 20 -10 4
3 11 -2 14 -11 3 -8 2 -12 -4 -9 -5 3 -18 1 -27 -4 -11 -6 -13 -11 -5 -11 7 0
10 -5 6 -11 -4 -8 -9 -7 -15 2 -6 11 -9 10 -14 -4 -7 -15 -55 -22 -55 -6 0 13
14 18 26 8 8 -7 14 -6 20 2 4 7 3 9 -3 6 -11 -7 -28 41 -18 51 3 3 5 -2 5 -11
0 -20 16 -23 24 -4 3 6 3 2 0 -11 -5 -22 -4 -22 15 -10 l22 13 -22 18 c-12 9
-17 17 -11 17 5 0 15 -7 22 -15z m211 -1 c-17 -13 -25 -14 -34 -5 -9 9 -8 11
4 6 10 -4 20 -2 24 4 3 6 11 11 18 11 6 0 1 -7 -12 -16z m472 1 c-3 -9 -8 -14
-10 -11 -3 3 -2 9 2 15 9 16 15 13 8 -4z m64 1 c-7 -19 3 -28 18 -16 8 7 12 5
12 -4 0 -14 -14 -16 -34 -3 -11 7 -8 37 4 37 3 0 3 -6 0 -14z m83 10 c0 -3 -4
-8 -10 -11 -5 -3 -10 -1 -10 4 0 6 5 11 10 11 6 0 10 -2 10 -4z m50 -11 c11
-13 11 -18 0 -28 -10 -10 -11 -9 -5 2 5 9 1 19 -10 28 -11 7 -14 13 -8 13 6 0
16 -7 23 -15z m150 11 c0 -2 -7 -7 -16 -10 -8 -3 -12 -2 -9 4 6 10 25 14 25 6z
m80 -11 c5 -3 10 -12 10 -18 0 -9 -3 -8 -8 1 -5 7 -19 14 -32 17 -12 2 -25 7
-29 10 -7 8 45 -1 59 -10z m623 -2 c-3 -7 -6 -13 -8 -13 -2 0 -5 6 -8 13 -3 8
1 14 8 14 7 0 11 -6 8 -14z m38 3 c-9 -11 -4 -18 26 -36 27 -16 33 -24 23 -30
-18 -11 -42 0 -36 17 6 16 -24 14 -37 -2 -4 -5 -5 3 -3 19 3 16 11 33 18 38
19 12 22 10 9 -6z m45 2 c4 -7 3 -8 -4 -4 -7 4 -12 2 -12 -5 0 -7 -3 -10 -6
-6 -6 5 3 27 11 27 2 0 7 -5 11 -12z m99 2 c3 -6 -1 -7 -9 -4 -18 7 -21 14 -7
14 6 0 13 -4 16 -10z m-2324 -17 c13 -16 12 -17 -3 -4 -10 7 -18 15 -18 17 0
8 8 3 21 -13z m119 -3 c0 -11 -4 -20 -9 -20 -5 0 -7 9 -4 20 3 11 7 20 9 20 2
0 4 -9 4 -20z m352 -12 c-8 -8 -9 -4 -5 13 4 13 8 18 11 10 2 -7 -1 -18 -6
-23z m69 15 c2 1 3 0 1 -2 -6 -11 -39 -6 -39 5 0 9 5 10 17 4 10 -5 19 -8 21
-7z m1326 11 c-3 -3 -12 -4 -19 -1 -8 3 -5 6 6 6 11 1 17 -2 13 -5z m430 -29
c12 -9 11 -11 -4 -11 -13 0 -19 8 -20 26 -1 14 1 18 4 10 4 -8 13 -20 20 -25z
m100 20 c-7 -16 9 -30 16 -15 4 7 5 6 4 0 -2 -7 -5 -10 -8 -8 -3 2 -13 -3 -21
-10 -13 -10 -17 -10 -22 3 -3 8 -10 15 -16 15 -6 0 -8 -5 -4 -12 4 -6 3 -8 -4
-4 -6 3 -14 1 -18 -6 -4 -7 -4 -10 1 -6 4 4 14 0 22 -10 12 -16 13 -15 6 3 -6
17 -5 18 9 7 10 -8 19 -9 22 -3 3 5 17 8 29 7 19 -2 23 1 22 18 -2 16 3 22 19
23 19 2 19 1 4 -8 -10 -6 -18 -15 -18 -21 0 -7 5 -6 15 2 8 7 15 9 15 5 0 -14
-35 -34 -60 -35 -20 0 -22 -2 -10 -10 13 -9 13 -10 0 -10 -8 0 -32 -16 -54
-35 -43 -39 -48 -42 -39 -20 3 10 0 15 -8 13 -8 -2 -13 3 -11 10 1 6 -1 11 -5
10 -14 -5 -55 30 -44 36 7 5 6 15 -5 31 -14 22 -14 23 5 18 25 -6 35 -31 20
-49 -10 -12 -9 -13 5 -8 9 3 16 12 16 20 0 8 5 14 11 14 6 0 8 -8 5 -17 -5
-15 -3 -14 9 2 9 11 13 25 10 33 -3 8 0 10 6 6 6 -4 15 0 20 7 8 12 11 11 20
-3 5 -10 15 -18 21 -18 6 0 5 7 -3 17 -10 11 -10 14 -1 9 6 -4 12 -2 12 3 0 6
3 11 6 11 3 0 4 -7 1 -15z m173 -20 c0 -5 -4 -4 -9 3 -4 8 -12 14 -16 14 -4 0
-12 -6 -17 -14 -8 -10 -9 -10 -5 2 2 8 10 14 16 13 6 -2 11 3 11 10 0 8 4 7
10 -3 5 -8 10 -19 10 -25z m-2536 10 c-4 -8 -8 -15 -10 -15 -2 0 -4 7 -4 15 0
8 4 15 10 15 5 0 7 -7 4 -15z m58 8 c-6 -2 -10 -9 -7 -14 4 -5 -1 -6 -10 -2
-13 5 -14 7 -3 14 7 5 18 8 23 8 6 0 4 -3 -3 -6z m552 -1 c3 -5 -1 -9 -9 -9
-8 0 -12 4 -9 9 3 4 7 8 9 8 2 0 6 -4 9 -8z m586 -8 c0 -2 -7 -4 -15 -4 -8 0
-15 4 -15 10 0 5 7 7 15 4 8 -4 15 -8 15 -10z m35 -3 c-3 -6 -11 -11 -16 -11
-5 0 -4 6 3 14 14 16 24 13 13 -3z m90 9 c-10 -16 -45 -32 -45 -20 0 5 7 10
15 10 8 0 15 5 15 10 0 6 5 10 11 10 5 0 7 -4 4 -10z m31 -12 c-9 -12 -23 -23
-32 -24 -13 -2 -12 3 7 21 30 30 45 32 25 3z m64 12 c-8 -5 -19 -10 -25 -10
-5 0 -3 5 5 10 8 5 20 10 25 10 6 0 3 -5 -5 -10z m363 -3 c3 -8 -1 -14 -8 -14
-7 0 -11 6 -8 14 3 7 6 13 8 13 2 0 5 -6 8 -13z m-1520 -4 c-18 -7 -16 -20 2
-20 8 0 15 4 15 9 0 4 7 8 15 8 19 0 19 -5 -1 -35 -15 -23 -15 -24 5 -20 11 2
23 0 26 -6 4 -5 2 -9 -2 -9 -5 0 -21 -12 -37 -26 -25 -24 -29 -25 -43 -11 -32
32 -16 119 21 116 6 0 6 -3 -1 -6z m2527 -254 c0 -5 -4 -9 -8 -9 -5 0 -9 7 -9
15 0 8 4 12 9 9 4 -3 8 -9 8 -15z m-1080 -24 c-10 -12 -10 -15 0 -15 8 0 11
-3 7 -6 -3 -3 -11 -3 -17 1 -8 5 -8 11 1 21 6 8 14 14 16 14 3 0 0 -7 -7 -15z
m35 -5 c3 -5 1 -10 -4 -10 -6 0 -11 5 -11 10 0 6 2 10 4 10 3 0 8 -4 11 -10z
m-1195 -10 c0 -5 -5 -10 -11 -10 -5 0 -7 5 -4 10 3 6 8 10 11 10 2 0 4 -4 4
-10z m1202 -17 c-6 -2 -9 -10 -6 -15 5 -7 2 -8 -6 -3 -9 5 -10 2 -5 -14 4 -13
2 -21 -5 -21 -6 0 -8 5 -5 10 3 6 1 10 -4 10 -7 0 -7 7 1 20 7 11 20 20 28 19
10 0 11 -2 2 -6z m856 -18 c-3 -3 -9 2 -12 12 -6 14 -5 15 5 6 7 -7 10 -15 7
-18z m-78 -5 c0 -5 -5 -10 -11 -10 -5 0 -7 5 -4 10 3 6 8 10 11 10 2 0 4 -4 4
-10z m38 -11 c-2 -6 3 -14 11 -17 8 -3 11 0 7 7 -4 6 -2 11 3 11 6 0 11 -6 11
-12 0 -9 3 -8 10 2 5 8 13 11 17 6 4 -5 2 -11 -5 -13 -8 -3 -22 -19 -33 -37
-13 -21 -19 -26 -19 -13 0 15 -3 16 -21 7 -11 -7 -23 -9 -27 -6 -3 3 0 6 7 6
7 0 10 4 7 8 -2 4 0 14 6 22 8 12 9 12 4 -2 -3 -10 -1 -18 4 -18 15 0 22 20
11 34 -6 7 -8 16 -4 19 9 10 13 8 11 -4z m-1993 -39 c4 -8 -3 -6 -18 8 -19 18
-26 20 -37 9 -12 -10 -12 -9 -1 5 10 14 16 15 32 5 10 -6 21 -18 24 -27z m655
6 c0 -2 -8 -10 -17 -17 -16 -13 -17 -12 -4 4 13 16 21 21 21 13z m-676 -22 c6
-15 4 -15 -11 -3 -10 7 -20 15 -22 16 -2 2 3 3 11 3 9 0 19 -7 22 -16z m1953
-19 c0 -8 -4 -12 -9 -9 -5 3 -6 10 -3 15 9 13 12 11 12 -6z m-1276 -18 c-6 -8
-8 -16 -5 -19 3 -3 1 -9 -4 -12 -6 -3 -9 0 -8 6 2 16 15 38 23 38 3 0 0 -6 -6
-13z m-16 -77 c-3 -5 -12 -10 -18 -10 -7 0 -6 4 3 10 19 12 23 12 15 0z m-349
-42 c0 -12 -8 -23 -16 -25 -12 -4 -12 -2 -2 5 7 5 12 13 11 18 -2 12 0 24 5
24 2 0 3 -10 2 -22z m1861 16 c-3 -4 -2 -15 4 -25 7 -15 6 -17 -6 -13 -8 3
-12 10 -9 15 3 5 -1 9 -8 9 -9 0 -9 3 2 10 17 11 26 13 17 4z m-1522 -22 c-3
-3 -11 0 -18 7 -9 10 -8 11 6 5 10 -3 15 -9 12 -12z m-20 -11 c3 -5 2 -12 -3
-15 -5 -3 -9 1 -9 9 0 17 3 19 12 6z m27 -28 c-6 -2 -9 -10 -6 -15 4 -7 2 -8
-5 -4 -13 9 -5 26 12 25 9 0 8 -2 -1 -6z m-385 -20 c-4 -3 -3 -11 3 -17 6 -8
2 -12 -13 -13 -17 -2 -19 0 -7 7 8 5 11 10 7 10 -9 0 1 20 10 20 4 0 3 -3 0
-7z m418 -34 c-6 -9 -35 -1 -35 10 0 4 3 11 7 14 8 9 34 -13 28 -24z m1480 1
c-3 -5 -14 -10 -23 -9 -14 0 -13 2 3 9 27 11 27 11 20 0z m-1535 -20 c-12 -22
-21 -26 -17 -7 2 10 17 26 25 27 1 0 -2 -9 -8 -20z m1129 -14 c-3 -3 -11 5
-18 17 -13 21 -12 21 5 5 10 -10 16 -20 13 -22z m-1509 15 c0 -6 -5 -13 -10
-16 -6 -4 -7 -11 -4 -17 4 -6 -2 -6 -15 1 -24 13 -28 23 -6 14 9 -3 15 -2 14
3 -3 16 1 24 11 24 6 0 10 -4 10 -9z m928 -14 c6 3 12 -1 12 -8 0 -7 -3 -9 -7
-6 -8 9 -34 -13 -28 -23 6 -10 -22 -7 -32 4 -4 4 0 12 10 18 15 8 16 12 5 26
-12 16 -11 16 7 1 11 -9 26 -14 33 -12z m-991 6 c-4 -3 -2 -12 5 -20 19 -24
-6 -38 -33 -19 -13 9 -19 16 -13 16 5 0 15 -5 22 -12 6 -6 15 -8 19 -4 4 4 1
11 -6 15 -12 8 -8 31 6 31 4 0 3 -3 0 -7z m-640 -18 c0 -8 -4 -12 -9 -9 -5 3
-6 10 -3 15 9 13 12 11 12 -6z m1563 5 c0 -5 -4 -10 -10 -10 -5 0 -10 5 -10
10 0 6 5 10 10 10 6 0 10 -4 10 -10z m158 -6 c-2 -10 3 -19 10 -21 8 -3 10 2
6 14 -5 15 -4 16 5 3 26 -34 31 -49 19 -56 -7 -4 -8 -3 -4 4 6 11 -6 16 -26
13 -5 0 -8 4 -8 9 0 6 -5 9 -11 8 -6 -2 -13 5 -14 15 -2 9 1 15 6 11 5 -3 9 0
9 5 0 6 2 11 5 11 3 0 5 -7 3 -16z m820 4 c-2 -7 4 -11 12 -10 8 2 12 0 8 -3
-4 -4 -2 -17 4 -29 6 -11 7 -18 3 -14 -5 4 -14 3 -21 -3 -10 -8 -12 -5 -8 15
2 13 0 28 -6 31 -6 4 -8 11 -5 16 9 13 15 11 13 -3z m-1171 -4 c-3 -3 -12 -4
-19 -1 -8 3 -5 6 6 6 11 1 17 -2 13 -5z m-1487 -14 c0 -5 -8 -10 -17 -10 -15
0 -16 2 -3 10 19 12 20 12 20 0z m2285 0 c-6 -10 8 -15 30 -11 6 1 3 -5 -6
-14 -14 -14 -20 -15 -35 -5 -18 11 -18 11 1 6 19 -6 19 -5 2 8 -14 10 -15 15
-5 19 19 8 20 8 13 -3z m187 -2 c-17 -17 -15 -33 2 -19 10 9 16 8 26 -4 11
-14 14 -13 26 2 12 17 13 17 11 -3 -1 -22 -12 -25 -34 -11 -6 4 -14 3 -18 -3
-9 -15 -22 -12 -29 5 -7 19 3 45 17 45 7 0 7 -4 -1 -12z m48 0 c0 -4 -4 -8 -9
-8 -6 0 -12 4 -15 8 -3 5 1 9 9 9 8 0 15 -4 15 -9z m-2439 -12 c5 3 16 -1 24
-10 9 -9 11 -17 5 -21 -5 -3 -10 -1 -10 6 0 8 -5 7 -17 -2 -10 -8 -14 -9 -10
-2 4 6 3 14 -3 18 -5 3 -10 12 -9 18 0 9 2 8 6 -1 2 -6 9 -10 14 -6z"/>
<path d="M1061 2161 c-7 -5 -9 -11 -4 -14 5 -3 15 -2 22 2 7 5 9 11 4 14 -5 3
-15 2 -22 -2z"/>
<path d="M1176 2115 c-14 -11 -16 -15 -5 -15 10 -1 9 -5 -5 -15 -11 -8 -15
-15 -9 -15 7 0 18 6 25 13 7 8 18 12 25 10 6 -2 14 1 18 7 3 6 3 10 -2 9 -20
-3 -34 2 -28 11 8 13 4 12 -19 -5z"/>
<path d="M1119 2093 c-12 -16 -12 -17 2 -6 9 7 19 10 22 6 4 -3 7 -1 7 5 0 17
-16 15 -31 -5z"/>
<path d="M870 1791 c0 -6 4 -13 10 -16 6 -3 7 1 4 9 -7 18 -14 21 -14 7z"/>
<path d="M845 1861 c-3 -5 -2 -12 3 -15 5 -3 9 1 9 9 0 17 -3 19 -12 6z"/>
<path d="M1396 1367 c3 -10 9 -15 12 -12 3 3 0 11 -7 18 -10 9 -11 8 -5 -6z"/>
<path d="M1313 1315 c-3 -9 -3 -19 1 -22 3 -4 6 1 6 10 0 8 6 18 13 20 9 4 9
6 -1 6 -7 1 -15 -6 -19 -14z"/>
<path d="M1226 1278 c3 -5 10 -6 15 -3 13 9 11 12 -6 12 -8 0 -12 -4 -9 -9z"/>
<path d="M2215 1320 c3 -5 8 -10 11 -10 2 0 4 5 4 10 0 6 -5 10 -11 10 -5 0
-7 -4 -4 -10z"/>
<path d="M2249 1316 c6 -7 8 -15 5 -19 -3 -3 2 -4 13 -2 10 2 20 4 23 4 9 2
-21 25 -35 27 -12 2 -13 -1 -6 -10z"/>
<path d="M2367 1284 c-29 -16 -37 -27 -12 -18 24 10 17 -12 -7 -24 -13 -6 -18
-11 -11 -11 16 -1 77 55 66 62 -4 3 -20 -1 -36 -9z"/>
<path d="M1289 1343 c-13 -16 -12 -17 4 -4 9 7 17 15 17 17 0 8 -8 3 -21 -13z"/>
<path d="M705 1291 c-4 -8 -1 -19 8 -28 19 -20 30 -1 13 22 -10 14 -15 15 -21
6z"/>
<path d="M2830 1245 c0 -5 5 -17 10 -25 5 -8 10 -10 10 -5 0 6 -5 17 -10 25
-5 8 -10 11 -10 5z"/>
<path d="M826 1271 c-4 -5 -17 -8 -31 -7 -13 2 -22 -1 -19 -5 7 -12 41 -6 56
9 7 7 9 12 6 12 -4 0 -9 -4 -12 -9z"/>
<path d="M788 1223 c10 -4 10 -8 0 -21 -12 -15 -11 -16 5 -3 9 7 17 17 17 22
0 5 -8 9 -17 8 -12 0 -13 -2 -5 -6z"/>
<path d="M3119 913 c-13 -16 -12 -17 4 -4 16 13 21 21 13 21 -2 0 -10 -8 -17
-17z"/>
<path d="M2239 583 c-13 -16 -12 -17 4 -4 16 13 21 21 13 21 -2 0 -10 -8 -17
-17z"/>
<path d="M701 2814 c0 -11 3 -14 6 -6 3 7 2 16 -1 19 -3 4 -6 -2 -5 -13z"/>
<path d="M715 2780 c3 -5 11 -10 16 -10 6 0 7 5 4 10 -3 6 -11 10 -16 10 -6 0
-7 -4 -4 -10z"/>
<path d="M1366 2504 c-5 -14 -4 -15 9 -4 17 14 19 20 6 20 -5 0 -12 -7 -15
-16z"/>
<path d="M1369 2316 c7 -8 10 -20 6 -27 -6 -8 -2 -8 14 0 11 7 21 14 21 17 0
3 -4 2 -10 -1 -5 -3 -10 -2 -10 3 0 6 -7 13 -16 16 -14 5 -15 4 -5 -8z"/>
<path d="M3327 2219 c7 -7 15 -10 18 -7 3 3 -2 9 -12 12 -14 6 -15 5 -6 -5z"/>
<path d="M3326 2178 c3 -4 9 -8 15 -8 5 0 9 4 9 8 0 5 -7 9 -15 9 -8 0 -12 -4
-9 -9z"/>
<path d="M2235 2160 c-16 -7 -17 -9 -3 -9 9 -1 20 4 23 9 7 11 7 11 -20 0z"/>
<path d="M390 2141 c0 -6 4 -13 10 -16 6 -3 7 1 4 9 -7 18 -14 21 -14 7z"/>
<path d="M3385 2042 c-14 -10 -17 -32 -4 -32 5 0 7 -4 4 -10 -3 -6 1 -7 10 -3
12 4 13 8 4 13 -6 5 -9 15 -6 24 7 18 6 19 -8 8z"/>
<path d="M1745 2022 c-2 -3 -2 -8 1 -13 5 -9 34 -1 34 10 0 8 -27 10 -35 3z"/>
<path d="M3334 1906 c11 -9 24 -16 30 -16 12 0 7 5 -24 19 -24 11 -24 11 -6
-3z"/>
<path d="M3283 1833 c-20 -7 -15 -19 7 -20 11 -1 20 2 20 7 0 12 -13 18 -27
13z"/>
<path d="M3266 1791 c-3 -5 1 -12 10 -15 8 -3 13 -2 9 3 -3 5 1 12 7 14 8 4 7
6 -4 6 -9 1 -19 -3 -22 -8z"/>
<path d="M3259 1717 c-6 -18 -5 -37 2 -37 5 0 9 5 9 11 0 5 5 7 10 4 6 -3 10
-2 10 3 0 8 -28 26 -31 19z"/>
<path d="M3240 1444 c0 -1 6 -7 14 -13 10 -9 15 -8 19 2 3 8 -3 13 -14 13 -11
0 -19 -1 -19 -2z"/>
<path d="M3296 1427 c3 -10 9 -15 12 -12 3 3 0 11 -7 18 -10 9 -11 8 -5 -6z"/>
<path d="M3250 1338 c0 -11 12 -10 30 2 12 7 10 9 -8 7 -12 0 -22 -5 -22 -9z"/>
<path d="M390 1301 c0 -6 4 -13 10 -16 6 -3 7 1 4 9 -7 18 -14 21 -14 7z"/>
<path d="M430 1306 c0 -2 7 -7 16 -10 8 -3 12 -2 9 4 -6 10 -25 14 -25 6z"/>
<path d="M3230 1279 c0 -5 5 -7 10 -4 6 3 10 8 10 11 0 2 -4 4 -10 4 -5 0 -10
-5 -10 -11z"/>
<path d="M3344 1152 c4 -23 46 -43 46 -22 0 6 -3 9 -7 9 -20 -3 -34 2 -28 11
3 5 12 7 20 3 8 -3 15 -1 15 4 0 5 -11 9 -24 9 -14 0 -23 -5 -22 -14z"/>
<path d="M3421 1096 c-9 -11 -9 -16 1 -22 7 -4 10 -4 6 1 -4 4 -3 14 3 22 6 7
9 13 6 13 -2 0 -10 -6 -16 -14z"/>
<path d="M3239 957 c-1 -1 -3 -12 -4 -24 -3 -28 11 -30 20 -3 4 11 11 18 16
14 6 -4 6 -11 -2 -20 -10 -12 -9 -13 4 -8 16 6 32 35 19 33 -4 -1 -9 0 -12 1
-9 3 -40 8 -41 7z"/>
<path d="M1409 663 c-5 -29 -5 -53 -1 -48 7 6 12 55 6 55 -2 0 -5 -3 -5 -7z"/>
<path d="M3277 612 c-6 -12 -16 -21 -23 -18 -15 6 -27 -21 -13 -30 6 -3 8 -12
6 -18 -3 -7 1 -13 8 -13 15 0 15 18 0 29 -5 4 -7 10 -3 13 3 3 13 -2 23 -11
12 -13 16 -13 15 -3 -4 25 0 35 20 56 20 22 20 22 -1 20 -12 -1 -26 -12 -32
-25z m14 -5 c-10 -9 -11 -8 -5 6 3 10 9 15 12 12 3 -3 0 -11 -7 -18z"/>
<path d="M943 603 c4 -3 -1 -12 -11 -20 -15 -13 -15 -13 6 -3 19 9 23 30 5 30
-4 0 -3 -3 0 -7z"/>
<path d="M1515 603 c3 -3 0 -11 -5 -18 -7 -8 -5 -12 4 -12 14 0 16 22 3 32 -4
3 -5 2 -2 -2z"/>
<path d="M1845 600 c3 -5 8 -10 11 -10 2 0 4 5 4 10 0 6 -5 10 -11 10 -5 0 -7
-4 -4 -10z"/>
<path d="M3323 603 c-15 -5 -17 -29 -4 -37 5 -3 8 2 7 12 0 9 5 16 12 14 8 -1
11 2 7 8 -3 5 -7 10 -8 9 -1 0 -8 -3 -14 -6z"/>
<path d="M414 586 c5 -14 2 -17 -9 -12 -8 3 -15 1 -15 -4 0 -6 6 -10 14 -10
10 0 13 -8 11 -21 -3 -12 -1 -18 3 -15 4 4 7 13 7 18 0 6 6 13 14 16 8 3 11 0
7 -7 -5 -7 -1 -9 8 -5 10 4 16 1 16 -7 0 -11 3 -11 10 1 8 13 10 12 10 -2 0
-10 5 -18 10 -18 7 0 7 6 0 20 -6 11 -14 19 -18 19 -19 -3 -33 3 -53 24 -18
18 -21 19 -15 3z"/>
<path d="M1866 584 c-5 -14 -4 -15 9 -4 12 10 15 10 15 -3 0 -8 12 -20 28 -26
15 -6 38 -18 52 -27 l25 -16 -25 20 c-25 21 -25 21 -2 19 12 -1 22 -5 22 -10
0 -4 5 -5 11 -2 6 5 4 12 -8 20 -10 7 -21 11 -26 8 -4 -2 -19 3 -32 11 -14 9
-25 12 -25 7 0 -5 6 -12 13 -14 9 -4 9 -6 0 -6 -7 -1 -17 8 -23 19 -13 24 -26
26 -34 4z"/>
<path d="M2307 594 c-3 -4 -2 -14 3 -24 5 -10 6 -20 3 -24 -3 -3 -1 -6 6 -6 9
0 11 6 6 18 -4 9 -8 23 -8 30 0 14 -1 14 -10 6z"/>
<path d="M355 581 c-3 -5 -2 -12 3 -15 5 -3 9 1 9 9 0 17 -3 19 -12 6z"/>
<path d="M856 573 c-6 -14 -5 -15 5 -6 7 7 10 15 7 18 -3 3 -9 -2 -12 -12z"/>
<path d="M970 582 c0 -7 6 -12 13 -12 8 0 7 -4 -3 -10 -11 -8 -8 -9 13 -6 21
4 27 1 24 -8 -3 -7 1 -13 7 -13 8 0 12 10 10 25 -3 31 -10 37 -27 24 -10 -9
-17 -8 -25 0 -9 9 -12 9 -12 0z m54 -10 c3 -5 -1 -9 -9 -9 -8 0 -12 4 -9 9 3
4 7 8 9 8 2 0 6 -4 9 -8z"/>
<path d="M1842 564 c10 -10 20 -16 22 -13 3 3 -5 11 -17 18 -21 13 -21 12 -5
-5z"/>
<path d="M2540 565 c-7 -9 -19 -14 -26 -11 -7 3 -20 -6 -29 -20 l-16 -25 24
15 c13 9 27 13 30 9 4 -3 7 -1 7 6 0 7 5 9 12 5 7 -5 8 -3 3 6 -6 9 -2 10 15
5 16 -5 21 -3 18 6 -7 20 -24 21 -38 4z"/>
<path d="M538 549 c-19 -11 -15 -36 7 -36 8 0 11 5 8 10 -4 6 0 8 9 4 11 -4
15 0 14 11 -3 20 -16 24 -38 11z m22 -9 c-8 -5 -19 -10 -25 -10 -5 0 -3 5 5
10 8 5 20 10 25 10 6 0 3 -5 -5 -10z"/>
<path d="M1119 559 c-5 -31 -7 -51 -3 -41 3 6 9 10 14 7 10 -6 7 21 -3 31 -4
4 -7 5 -8 3z"/>
<path d="M1646 547 c3 -10 9 -15 12 -12 3 3 0 11 -7 18 -10 9 -11 8 -5 -6z"/>
<path d="M2156 547 c-16 -12 -16 -14 -3 -14 9 0 18 6 21 14 3 7 4 13 3 13 -2
0 -11 -6 -21 -13z"/>
<path d="M2434 536 c-1 -13 4 -23 11 -23 7 0 10 8 7 19 -7 27 -17 29 -18 4z"/>
<path d="M3096 551 c-4 -6 -4 -15 -1 -21 3 -5 2 -10 -2 -10 -5 0 -17 -6 -27
-13 -16 -12 -16 -13 3 -13 11 0 18 2 16 4 -2 3 6 13 18 23 16 13 19 20 11 29
-8 8 -14 9 -18 1z"/>
<path d="M2194 541 c4 -5 1 -12 -4 -14 -6 -3 -5 -4 2 -3 15 3 23 26 8 26 -6 0
-9 -4 -6 -9z"/>
<path d="M2696 535 c-3 -8 -1 -15 4 -15 6 0 10 7 10 15 0 8 -2 15 -4 15 -2 0
-6 -7 -10 -15z"/>
<path d="M2550 530 c-9 -6 -10 -10 -3 -10 6 0 15 5 18 10 8 12 4 12 -15 0z"/>
<path d="M2635 530 c3 -5 8 -10 11 -10 2 0 4 5 4 10 0 6 -5 10 -11 10 -5 0 -7
-4 -4 -10z"/>
<path d="M2955 530 c3 -5 8 -10 11 -10 2 0 4 5 4 10 0 6 -5 10 -11 10 -5 0 -7
-4 -4 -10z"/>
<path d="M450 520 c0 -5 5 -10 11 -10 5 0 7 5 4 10 -3 6 -8 10 -11 10 -2 0 -4
-4 -4 -10z"/>
<path d="M740 520 c-9 -6 -10 -10 -3 -10 6 0 15 5 18 10 8 12 4 12 -15 0z"/>
<path d="M1930 521 c0 -6 4 -13 10 -16 6 -3 7 1 4 9 -7 18 -14 21 -14 7z"/>
<path d="M2370 520 c0 -5 5 -10 11 -10 5 0 7 5 4 10 -3 6 -8 10 -11 10 -2 0
-4 -4 -4 -10z"/>
<path d="M2840 520 c-9 -6 -10 -10 -3 -10 6 0 15 5 18 10 8 12 4 12 -15 0z"/>
<path d="M3117 513 c-4 -3 -7 -11 -7 -17 0 -6 5 -5 12 2 6 6 9 14 7 17 -3 3
-9 2 -12 -2z"/>
<path d="M479 493 c-13 -16 -12 -17 4 -4 16 13 21 21 13 21 -2 0 -10 -8 -17
-17z"/>
<path d="M2030 499 c0 -5 5 -7 10 -4 6 3 10 8 10 11 0 2 -4 4 -10 4 -5 0 -10
-5 -10 -11z"/>
</g>
</svg>
